<svg width="128" height="128" viewBox="0 0 128 128" fill="none" xmlns="http://www.w3.org/2000/svg">
<rect width="128" height="128" fill="#184629"/>
<path d="M42.6193 92.7556V84.5067H49.1615V51.2267H42.6193V42.9778H68.2193C71.2533 42.9778 73.8844 43.4993 76.1126 44.5423C78.3881 45.5378 80.1422 46.9838 81.3748 48.8801C82.6548 50.7289 83.2948 52.9571 83.2948 55.5645V56.2756C83.2948 58.5512 82.8681 60.4238 82.0148 61.8934C81.1615 63.3156 80.1422 64.4297 78.957 65.2356C77.8193 65.9941 76.7289 66.5393 75.6859 66.8712V68.1512C76.7289 68.4356 77.8667 68.9808 79.0993 69.7867C80.3319 70.5452 81.3748 71.6593 82.2281 73.1289C83.1289 74.5986 83.5793 76.5186 83.5793 78.8889V79.6001C83.5793 82.3497 82.9393 84.7201 81.6593 86.7112C80.3793 88.6549 78.6015 90.1482 76.3259 91.1912C74.0978 92.2341 71.4904 92.7556 68.5037 92.7556H42.6193ZM58.5481 84.2223H67.3659C69.4044 84.2223 71.04 83.7245 72.2726 82.7289C73.5526 81.7334 74.1926 80.3112 74.1926 78.4623V77.7512C74.1926 75.9023 73.5763 74.4801 72.3437 73.4845C71.1111 72.4889 69.4519 71.9912 67.3659 71.9912H58.5481V84.2223ZM58.5481 63.4578H67.2237C69.1674 63.4578 70.7556 62.9601 71.9881 61.9645C73.2681 60.9689 73.9081 59.5941 73.9081 57.8401V57.1289C73.9081 55.3275 73.2919 53.9526 72.0593 53.0045C70.8267 52.0089 69.2148 51.5112 67.2237 51.5112H58.5481V63.4578Z" fill="#2AB873"/>
</svg>
