<svg width="165" height="36" viewBox="0 0 165 36" fill="none" xmlns="http://www.w3.org/2000/svg">
<path d="M0.3 35V29.2H4.9V5.8H0.3V-2.38419e-06H18.3C20.4333 -2.38419e-06 22.2833 0.366665 23.85 1.1C25.45 1.8 26.6833 2.81667 27.55 4.15C28.45 5.45 28.9 7.01667 28.9 8.85V9.35C28.9 10.95 28.6 12.2667 28 13.3C27.4 14.3 26.6833 15.0833 25.85 15.65C25.05 16.1833 24.2833 16.5667 23.55 16.8V17.7C24.2833 17.9 25.0833 18.2833 25.95 18.85C26.8167 19.3833 27.55 20.1667 28.15 21.2C28.7833 22.2333 29.1 23.5833 29.1 25.25V25.75C29.1 27.6833 28.65 29.35 27.75 30.75C26.85 32.1167 25.6 33.1667 24 33.9C22.4333 34.6333 20.6 35 18.5 35H0.3ZM11.5 29H17.7C19.1333 29 20.2833 28.65 21.15 27.95C22.05 27.25 22.5 26.25 22.5 24.95V24.45C22.5 23.15 22.0667 22.15 21.2 21.45C20.3333 20.75 19.1667 20.4 17.7 20.4H11.5V29ZM11.5 14.4H17.6C18.9667 14.4 20.0833 14.05 20.95 13.35C21.85 12.65 22.3 11.6833 22.3 10.45V9.95C22.3 8.68333 21.8667 7.71667 21 7.05C20.1333 6.35 19 6 17.6 6H11.5V14.4ZM42.4031 35.7C40.6365 35.7 39.0531 35.4 37.6531 34.8C36.2531 34.1667 35.1365 33.2667 34.3031 32.1C33.5031 30.9 33.1031 29.45 33.1031 27.75C33.1031 26.05 33.5031 24.6333 34.3031 23.5C35.1365 22.3333 36.2698 21.4667 37.7031 20.9C39.1698 20.3 40.8365 20 42.7031 20H49.5031V18.6C49.5031 17.4333 49.1365 16.4833 48.4031 15.75C47.6698 14.9833 46.5031 14.6 44.9031 14.6C43.3365 14.6 42.1698 14.9667 41.4031 15.7C40.6365 16.4 40.1365 17.3167 39.9031 18.45L34.1031 16.5C34.5031 15.2333 35.1365 14.0833 36.0031 13.05C36.9031 11.9833 38.0865 11.1333 39.5531 10.5C41.0531 9.83333 42.8698 9.5 45.0031 9.5C48.2698 9.5 50.8531 10.3167 52.7531 11.95C54.6531 13.5833 55.6031 15.95 55.6031 19.05V28.3C55.6031 29.3 56.0698 29.8 57.0031 29.8H59.0031V35H54.8031C53.5698 35 52.5531 34.7 51.7531 34.1C50.9531 33.5 50.5531 32.7 50.5531 31.7V31.65H49.6031C49.4698 32.05 49.1698 32.5833 48.7031 33.25C48.2365 33.8833 47.5031 34.45 46.5031 34.95C45.5031 35.45 44.1365 35.7 42.4031 35.7ZM43.5031 30.6C45.2698 30.6 46.7031 30.1167 47.8031 29.15C48.9365 28.15 49.5031 26.8333 49.5031 25.2V24.7H43.1531C41.9865 24.7 41.0698 24.95 40.4031 25.45C39.7365 25.95 39.4031 26.65 39.4031 27.55C39.4031 28.45 39.7531 29.1833 40.4531 29.75C41.1531 30.3167 42.1698 30.6 43.5031 30.6ZM63.6094 35V10.2H69.8094V13.45H70.7094C71.1094 12.5833 71.8594 11.7667 72.9594 11C74.0594 10.2 75.726 9.8 77.9594 9.8C79.8927 9.8 81.576 10.25 83.0094 11.15C84.476 12.0167 85.6094 13.2333 86.4094 14.8C87.2094 16.3333 87.6094 18.1333 87.6094 20.2V35H81.3094V20.7C81.3094 18.8333 80.8427 17.4333 79.9094 16.5C79.0094 15.5667 77.7094 15.1 76.0094 15.1C74.076 15.1 72.576 15.75 71.5094 17.05C70.4427 18.3167 69.9094 20.1 69.9094 22.4V35H63.6094ZM94.4199 35V-2.38419e-06H100.72V19.35H101.62L109.82 10.2H118.02L106.57 22.2L118.42 35H110.32L101.62 25.15H100.72V35H94.4199ZM132.429 35.7C129.962 35.7 127.779 35.1833 125.879 34.15C124.012 33.0833 122.546 31.6 121.479 29.7C120.446 27.7667 119.929 25.5 119.929 22.9V22.3C119.929 19.7 120.446 17.45 121.479 15.55C122.512 13.6167 123.962 12.1333 125.829 11.1C127.696 10.0333 129.862 9.5 132.329 9.5C134.762 9.5 136.879 10.05 138.679 11.15C140.479 12.2167 141.879 13.7167 142.879 15.65C143.879 17.55 144.379 19.7667 144.379 22.3V24.45H126.329C126.396 26.15 127.029 27.5333 128.229 28.6C129.429 29.6667 130.896 30.2 132.629 30.2C134.396 30.2 135.696 29.8167 136.529 29.05C137.362 28.2833 137.996 27.4333 138.429 26.5L143.579 29.2C143.112 30.0667 142.429 31.0167 141.529 32.05C140.662 33.05 139.496 33.9167 138.029 34.65C136.562 35.35 134.696 35.7 132.429 35.7ZM126.379 19.75H137.979C137.846 18.3167 137.262 17.1667 136.229 16.3C135.229 15.4333 133.912 15 132.279 15C130.579 15 129.229 15.4333 128.229 16.3C127.229 17.1667 126.612 18.3167 126.379 19.75ZM149.986 35V10.2H156.186V13H157.086C157.453 12 158.053 11.2667 158.886 10.8C159.753 10.3333 160.753 10.1 161.886 10.1H164.886V15.7H161.786C160.186 15.7 158.87 16.1333 157.836 17C156.803 17.8333 156.286 19.1333 156.286 20.9V35H149.986Z" fill="#2AB873"/>
</svg>
