<svg width="495" height="108" viewBox="0 0 495 108" fill="none" xmlns="http://www.w3.org/2000/svg">
<path d="M0.900001 105V87.6H14.7V17.4H0.900001V-7.15256e-06H54.9C61.3 -7.15256e-06 66.85 1.09999 71.55 3.3C76.35 5.4 80.05 8.45 82.65 12.45C85.35 16.35 86.7 21.05 86.7 26.55V28.05C86.7 32.85 85.8 36.8 84 39.9C82.2 42.9 80.05 45.25 77.55 46.95C75.15 48.55 72.85 49.7 70.65 50.4V53.1C72.85 53.7 75.25 54.85 77.85 56.55C80.45 58.15 82.65 60.5 84.45 63.6C86.35 66.7 87.3 70.75 87.3 75.75V77.25C87.3 83.05 85.95 88.05 83.25 92.25C80.55 96.35 76.8 99.5 72 101.7C67.3 103.9 61.8 105 55.5 105H0.900001ZM34.5 87H53.1C57.4 87 60.85 85.95 63.45 83.85C66.15 81.75 67.5 78.75 67.5 74.85V73.35C67.5 69.45 66.2 66.45 63.6 64.35C61 62.25 57.5 61.2 53.1 61.2H34.5V87ZM34.5 43.2H52.8C56.9 43.2 60.25 42.15 62.85 40.05C65.55 37.95 66.9 35.05 66.9 31.35V29.85C66.9 26.05 65.6 23.15 63 21.15C60.4 19.05 57 18 52.8 18H34.5V43.2ZM127.209 107.1C121.909 107.1 117.159 106.2 112.959 104.4C108.759 102.5 105.409 99.8 102.909 96.3C100.509 92.7 99.3094 88.35 99.3094 83.25C99.3094 78.15 100.509 73.9 102.909 70.5C105.409 67 108.809 64.4 113.109 62.7C117.509 60.9 122.509 60 128.109 60H148.509V55.8C148.509 52.3 147.409 49.45 145.209 47.25C143.009 44.95 139.509 43.8 134.709 43.8C130.009 43.8 126.509 44.9 124.209 47.1C121.909 49.2 120.409 51.95 119.709 55.35L102.309 49.5C103.509 45.7 105.409 42.25 108.009 39.15C110.709 35.95 114.259 33.4 118.659 31.5C123.159 29.5 128.609 28.5 135.009 28.5C144.809 28.5 152.559 30.95 158.259 35.85C163.959 40.75 166.809 47.85 166.809 57.15V84.9C166.809 87.9 168.209 89.4 171.009 89.4H177.009V105H164.409C160.709 105 157.659 104.1 155.259 102.3C152.859 100.5 151.659 98.1 151.659 95.1V94.95H148.809C148.409 96.15 147.509 97.75 146.109 99.75C144.709 101.65 142.509 103.35 139.509 104.85C136.509 106.35 132.409 107.1 127.209 107.1ZM130.509 91.8C135.809 91.8 140.109 90.35 143.409 87.45C146.809 84.45 148.509 80.5 148.509 75.6V74.1H129.459C125.959 74.1 123.209 74.85 121.209 76.35C119.209 77.85 118.209 79.95 118.209 82.65C118.209 85.35 119.259 87.55 121.359 89.25C123.459 90.95 126.509 91.8 130.509 91.8ZM190.828 105V30.6H209.428V40.35H212.128C213.328 37.75 215.578 35.3 218.878 33C222.178 30.6 227.178 29.4 233.878 29.4C239.678 29.4 244.728 30.75 249.028 33.45C253.428 36.05 256.828 39.7 259.228 44.4C261.628 49 262.828 54.4 262.828 60.6V105H243.928V62.1C243.928 56.5 242.528 52.3 239.728 49.5C237.028 46.7 233.128 45.3 228.028 45.3C222.228 45.3 217.728 47.25 214.528 51.15C211.328 54.95 209.728 60.3 209.728 67.2V105H190.828ZM283.26 105V-7.15256e-06H302.16V58.05H304.86L329.46 30.6H354.06L319.71 66.6L355.26 105H330.96L304.86 75.45H302.16V105H283.26ZM397.287 107.1C389.887 107.1 383.337 105.55 377.637 102.45C372.037 99.25 367.637 94.8 364.437 89.1C361.337 83.3 359.787 76.5 359.787 68.7V66.9C359.787 59.1 361.337 52.35 364.437 46.65C367.537 40.85 371.887 36.4 377.487 33.3C383.087 30.1 389.587 28.5 396.987 28.5C404.287 28.5 410.637 30.15 416.037 33.45C421.437 36.65 425.637 41.15 428.637 46.95C431.637 52.65 433.137 59.3 433.137 66.9V73.35H378.987C379.187 78.45 381.087 82.6 384.687 85.8C388.287 89 392.687 90.6 397.887 90.6C403.187 90.6 407.087 89.45 409.587 87.15C412.087 84.85 413.987 82.3 415.287 79.5L430.737 87.6C429.337 90.2 427.287 93.05 424.587 96.15C421.987 99.15 418.487 101.75 414.087 103.95C409.687 106.05 404.087 107.1 397.287 107.1ZM379.137 59.25H413.937C413.537 54.95 411.787 51.5 408.687 48.9C405.687 46.3 401.737 45 396.837 45C391.737 45 387.687 46.3 384.687 48.9C381.687 51.5 379.837 54.95 379.137 59.25ZM449.959 105V30.6H468.559V39H471.259C472.359 36 474.159 33.8 476.659 32.4C479.259 31 482.259 30.3 485.659 30.3H494.659V47.1H485.359C480.559 47.1 476.609 48.4 473.509 51C470.409 53.5 468.859 57.4 468.859 62.7V105H449.959Z" fill="#184629"/>
</svg>
